<svg data-v-fde0c5aa="" xmlns="http://www.w3.org/2000/svg" viewBox="0 0 300 300" class="font"><!----><defs data-v-fde0c5aa=""><!----></defs><rect data-v-fde0c5aa="" fill="#C37EF3" x="0" y="0" width="300px" height="300px" class="logo-background-square"></rect><defs data-v-fde0c5aa=""><!----></defs><g data-v-fde0c5aa="" id="a6ae54ce-5a59-4ea8-98f3-bd760762ef88" fill="#FDD57C" transform="matrix(4.625769913190937,0,0,4.625769913190937,39.35076906122424,113.54893145180857)"><path d="M3.08 3.61L3.08 3.61L3.08 3.61Q2.50 3.75 2.01 4.18L2.01 4.18L2.01 4.18Q1.52 4.60 1.18 5.07L1.18 5.07L1.18 5.07Q0.83 5.54 0.82 6.25L0.82 6.25L0.82 6.25Q0.80 6.97 1.27 7.51L1.27 7.51L1.27 7.51Q1.74 8.06 2.91 8.61L2.91 8.61L2.91 8.61Q4.07 9.16 4.58 9.92L4.58 9.92L4.58 9.92Q5.09 10.68 4.65 11.10L4.65 11.10L4.65 11.10Q4.20 11.52 3.54 11.39L3.54 11.39L3.54 11.39Q2.88 11.25 2.29 10.89L2.29 10.89L2.29 10.89Q1.70 10.52 1.42 9.88L1.42 9.88L1.42 9.88Q1.14 9.24 1.45 8.81L1.45 8.81L1.28 8.68L0.17 9.95L0.17 9.95Q0.04 10.49 0.48 11.18L0.48 11.18L0.48 11.18Q0.91 11.87 1.69 12.33L1.69 12.33L1.69 12.33Q2.46 12.79 3.40 12.67L3.40 12.67L3.40 12.67Q4.33 12.54 5.17 11.37L5.17 11.37L5.17 11.37Q6.00 10.20 5.98 9.49L5.98 9.49L5.98 9.49Q5.97 8.78 5.48 8.17L5.48 8.17L5.48 8.17Q4.98 7.56 3.57 6.97L3.57 6.97L3.57 6.97Q2.15 6.38 1.99 5.74L1.99 5.74L1.99 5.74Q1.82 5.09 2.40 4.92L2.40 4.92L2.40 4.92Q2.97 4.76 3.60 5.10L3.60 5.10L3.60 5.10Q4.22 5.43 4.03 5.97L4.03 5.97L4.13 6.13L5.20 4.93L5.20 4.93Q5.09 4.23 4.38 3.85L4.38 3.85L4.38 3.85Q3.66 3.47 3.08 3.61ZM7.68 2.95L6.41 3.94L6.41 3.94Q6.58 4.29 6.61 4.87L6.61 4.87L6.61 4.87Q6.54 11.47 6.65 11.98L6.65 11.98L6.65 11.98Q6.76 12.50 7.23 12.81L7.23 12.81L8.83 11.61L8.62 11.39L8.62 11.39Q8.26 11.69 8.18 11.14L8.18 11.14L8.18 11.14Q8.09 10.59 8.13 8.05L8.13 8.05L8.13 8.05Q8.76 7.52 9.22 7.58L9.22 7.58L9.22 7.58Q9.67 7.64 9.77 8.03L9.77 8.03L9.77 8.03Q9.87 8.42 9.53 8.77L9.53 8.77L9.53 8.77Q9.19 9.13 8.23 9.56L8.23 9.56L8.23 10.00L8.23 10.00Q8.80 9.33 9.55 10.86L9.55 10.86L9.55 10.86Q10.29 12.38 10.90 12.77L10.90 12.77L12.63 11.42L12.43 11.25L12.43 11.25Q11.92 11.61 11.20 10.46L11.20 10.46L11.20 10.46Q10.48 9.32 10.01 9.13L10.01 9.13L10.01 9.13Q10.87 8.69 11.19 8.18L11.19 8.18L11.19 8.18Q11.50 7.66 11.22 7.13L11.22 7.13L11.22 7.13Q10.94 6.60 10.44 6.54L10.44 6.54L10.44 6.54Q9.94 6.47 9.47 6.68L9.47 6.68L9.47 6.68Q9.00 6.89 8.11 7.59L8.11 7.59L8.11 3.80L8.11 3.80Q8.02 3.22 7.68 2.95L7.68 2.95ZM13.82 3.68L12.46 4.86L12.46 4.86Q13.09 5.30 13.42 5.91L13.42 5.91L13.42 5.91Q14.57 5.15 14.71 4.96L14.71 4.96L14.71 4.96Q14.85 4.76 14.64 4.31L14.64 4.31L14.64 4.31Q14.42 3.86 13.82 3.68L13.82 3.68ZM12.67 7.76L12.67 7.76Q13.25 7.43 13.05 9.23L13.05 9.23L13.05 9.23Q13.02 11.37 13.06 11.88L13.06 11.88L13.06 11.88Q13.11 12.39 13.67 12.72L13.67 12.72L15.03 11.45L15.04 11.27L15.04 11.27Q14.66 11.29 14.58 10.76L14.58 10.76L14.58 10.76Q14.49 10.23 14.53 8.94L14.53 8.94L14.53 8.94Q14.57 7.65 14.55 7.25L14.55 7.25L14.55 7.25Q14.53 6.85 14.18 6.45L14.18 6.45L12.56 7.57L12.67 7.76ZM16.63 3.24L15.45 4.21L15.45 4.21Q15.62 4.54 15.65 5.11L15.65 5.11L15.65 5.11Q15.58 11.51 15.69 12.01L15.69 12.01L15.69 12.01Q15.80 12.50 16.33 12.81L16.33 12.81L18.08 11.55L17.88 11.33L17.88 11.33Q17.42 11.43 17.20 11.03L17.20 11.03L17.20 11.03Q16.97 10.62 17.05 4.07L17.05 4.07L17.05 4.07Q16.96 3.51 16.63 3.24L16.63 3.24ZM19.48 3.24L18.31 4.21L18.31 4.21Q18.48 4.54 18.50 5.11L18.50 5.11L18.50 5.11Q18.44 11.51 18.55 12.01L18.55 12.01L18.55 12.01Q18.66 12.50 19.19 12.81L19.19 12.81L20.94 11.55L20.73 11.33L20.73 11.33Q20.28 11.43 20.05 11.03L20.05 11.03L20.05 11.03Q19.83 10.62 19.91 4.07L19.91 4.07L19.91 4.07Q19.82 3.51 19.48 3.24L19.48 3.24ZM29.31 3.57L27.86 4.49L27.86 4.49Q28.05 4.81 28.08 5.35L28.08 5.35L28.09 6.93L26.22 6.92L25.68 7.55L25.72 4.32L25.72 4.32Q25.63 3.78 25.27 3.53L25.27 3.53L23.82 4.45L23.82 4.45Q24.01 4.77 24.04 5.31L24.04 5.31L24.04 5.31Q23.97 11.44 24.09 11.91L24.09 11.91L24.09 11.91Q24.21 12.39 24.79 12.67L24.79 12.67L26.40 11.53L26.29 11.24L26.29 11.24Q25.93 11.34 25.79 10.96L25.79 10.96L25.79 10.96Q25.64 10.58 25.68 7.97L25.68 7.97L28.04 7.96L28.04 7.96Q28.01 11.47 28.13 11.95L28.13 11.95L28.13 11.95Q28.25 12.42 28.83 12.71L28.83 12.71L30.44 11.57L30.33 11.28L30.33 11.28Q29.97 11.38 29.83 11.00L29.83 11.00L29.83 11.00Q29.68 10.62 29.76 4.36L29.76 4.36L29.76 4.36Q29.67 3.82 29.31 3.57L29.31 3.57ZM35.13 12.76L36.80 11.54L36.65 11.31L36.65 11.31Q36.20 11.40 36.20 10.68L36.20 10.68L36.20 10.68Q36.26 7.72 36.18 7.27L36.18 7.27L36.18 7.27Q36.09 6.82 35.51 6.47L35.51 6.47L34.06 7.72L34.13 7.85L34.13 7.85Q34.54 7.65 34.65 8.33L34.65 8.33L34.65 8.33Q34.77 9.02 34.69 10.91L34.69 10.91L34.69 10.91Q33.82 11.70 33.21 11.47L33.21 11.47L33.21 11.47Q32.61 11.25 32.61 9.81L32.61 9.81L32.61 9.81Q32.65 7.76 32.60 7.27L32.60 7.27L32.60 7.27Q32.55 6.78 32.01 6.42L32.01 6.42L30.59 7.69L30.72 7.85L30.72 7.85Q30.98 7.66 31.07 8.36L31.07 8.36L31.07 8.36Q31.16 9.07 31.10 10.51L31.10 10.51L31.10 10.51Q31.04 11.39 31.26 11.88L31.26 11.88L31.26 11.88Q31.48 12.38 32.10 12.63L32.10 12.63L32.10 12.63Q32.72 12.87 33.26 12.61L33.26 12.61L33.26 12.61Q33.79 12.35 34.14 12.07L34.14 12.07L34.14 12.07Q34.48 11.78 34.67 11.57L34.67 11.57L34.67 11.57Q34.60 12.41 35.13 12.76L35.13 12.76ZM38.74 6.42L37.06 7.64L37.22 7.87L37.22 7.87Q37.73 7.56 37.67 8.50L37.67 8.50L37.67 8.50Q37.60 11.46 37.69 11.91L37.69 11.91L37.69 11.91Q37.78 12.37 38.36 12.71L38.36 12.71L39.81 11.46L39.81 11.29L39.81 11.29Q39.35 11.40 39.22 10.78L39.22 10.78L39.22 10.78Q39.10 10.17 39.18 8.27L39.18 8.27L39.18 8.27Q40.05 7.48 40.66 7.71L40.66 7.71L40.66 7.71Q41.26 7.94 41.25 9.37L41.25 9.37L41.25 9.37Q41.22 11.42 41.27 11.91L41.27 11.91L41.27 11.91Q41.32 12.40 41.86 12.76L41.86 12.76L43.28 11.49L43.24 11.33L43.24 11.33Q42.89 11.44 42.77 10.81L42.77 10.81L42.77 10.81Q42.66 10.18 42.72 8.74L42.72 8.74L42.72 8.74Q42.77 7.86 42.58 7.33L42.58 7.33L42.58 7.33Q42.39 6.80 41.77 6.56L41.77 6.56L41.77 6.56Q41.15 6.31 40.61 6.57L40.61 6.57L40.61 6.57Q40.08 6.83 39.73 7.12L39.73 7.12L39.73 7.12Q39.39 7.40 39.20 7.62L39.20 7.62L39.20 7.62Q39.27 6.77 38.74 6.42L38.74 6.42ZM45.65 3.70L44.41 4.68L44.41 4.68Q44.81 4.64 44.63 6.90L44.63 6.90L44.19 6.91L43.20 8.26L43.42 8.45L43.42 8.45Q43.74 8.09 44.59 8.13L44.59 8.13L44.59 8.13Q44.47 11.08 44.59 11.67L44.59 11.67L44.59 11.67Q44.72 12.25 45.40 12.72L45.40 12.72L45.40 12.72Q46.33 12.24 47.65 11.16L47.65 11.16L47.52 10.63L47.52 10.63Q46.05 11.38 45.97 10.75L45.97 10.75L45.97 10.75Q45.88 10.13 45.95 8.13L45.95 8.13L46.81 8.13L47.70 7.02L47.65 6.88L45.98 6.86L46.05 4.57L46.05 4.57Q45.98 3.98 45.65 3.70L45.65 3.70Z"></path></g><!----><!----></svg>